<svg width="14" height="13" viewBox="0 0 14 13" fill="none" xmlns="http://www.w3.org/2000/svg">
<path d="M8.121 0.292787C7.93353 0.480314 7.82821 0.734622 7.82821 0.999786C7.82821 1.26495 7.93353 1.51926 8.121 1.70679L11.413 4.99979L1 5.00679C0.734784 5.00679 0.48043 5.11214 0.292893 5.29968C0.105357 5.48722 0 5.74157 0 6.00679C0 6.272 0.105357 6.52636 0.292893 6.71389C0.48043 6.90143 0.734784 7.00679 1 7.00679L11.414 6.99979L8.121 10.2928C8.02549 10.385 7.94931 10.4954 7.8969 10.6174C7.84449 10.7394 7.8169 10.8706 7.81575 11.0034C7.8146 11.1362 7.8399 11.2678 7.89018 11.3907C7.94046 11.5136 8.01471 11.6253 8.10861 11.7192C8.2025 11.8131 8.31415 11.8873 8.43705 11.9376C8.55994 11.9879 8.69162 12.0132 8.8244 12.012C8.95718 12.0109 9.0884 11.9833 9.2104 11.9309C9.33241 11.8785 9.44275 11.8023 9.535 11.7068L13.121 8.12179C13.3996 7.8432 13.6207 7.51246 13.7715 7.14845C13.9222 6.78444 13.9999 6.39429 13.9999 6.00029C13.9999 5.60628 13.9222 5.21613 13.7715 4.85212C13.6207 4.48811 13.3996 4.15737 13.121 3.87879L9.535 0.292787C9.34747 0.105316 9.09316 0 8.828 0C8.56284 0 8.30853 0.105316 8.121 0.292787Z" fill="white"/>
</svg>
