<svg width="174" height="33" viewBox="0 0 174 33" fill="none" xmlns="http://www.w3.org/2000/svg">
<circle cx="16.1" cy="16.3212" r="15.6" fill="url(#paint0_linear_2_1093)" fill-opacity="0.05" stroke="url(#paint1_linear_2_1093)"/>
<path d="M13.9658 24.795V16.8428H11.8631V13.9797H13.9658V11.5341C13.9658 9.61242 15.2079 7.84766 18.07 7.84766C19.2287 7.84766 20.0856 7.95875 20.0856 7.95875L20.0181 10.6325C20.0181 10.6325 19.1442 10.624 18.1906 10.624C17.1585 10.624 16.9932 11.0996 16.9932 11.889V13.9797H20.1001L19.965 16.8428H16.9932V24.795H13.9658Z" fill="#555555"/>
<circle cx="63.3" cy="16.3212" r="15.6" fill="url(#paint2_linear_2_1093)" fill-opacity="0.05" stroke="url(#paint3_linear_2_1093)"/>
<path d="M71.7737 11.178C71.1505 11.4468 70.4723 11.6403 69.7737 11.7156C70.499 11.2848 71.0421 10.604 71.3012 9.80115C70.6206 10.206 69.875 10.4899 69.0975 10.6403C68.7725 10.2929 68.3795 10.0161 67.9429 9.82723C67.5063 9.63837 67.0355 9.54144 66.5598 9.54249C64.6351 9.54249 63.0872 11.1026 63.0872 13.0171C63.0872 13.2859 63.1198 13.5548 63.1727 13.8134C60.2908 13.6627 57.7205 12.2859 56.0117 10.1779C55.7004 10.7098 55.5372 11.3153 55.5392 11.9315C55.5392 13.1373 56.1522 14.2004 57.0871 14.8257C56.5362 14.804 55.9982 14.6526 55.5168 14.3837V14.4265C55.5168 16.1149 56.7103 17.5141 58.301 17.8359C58.0023 17.9135 57.6951 17.9532 57.3865 17.9541C57.1604 17.9541 56.9466 17.9317 56.7307 17.9011C57.1706 19.2779 58.4517 20.2779 59.9772 20.3105C58.7837 21.2454 57.2887 21.7953 55.6655 21.7953C55.3742 21.7953 55.1054 21.7851 54.8264 21.7525C56.3661 22.7403 58.193 23.3106 60.1605 23.3106C66.5476 23.3106 70.0425 18.0192 70.0425 13.4265C70.0425 13.2758 70.0425 13.125 70.0323 12.9743C70.7085 12.4794 71.3012 11.8664 71.7737 11.178Z" fill="#555555"/>
<circle cx="110.5" cy="16.3212" r="15.6" fill="url(#paint4_linear_2_1093)" fill-opacity="0.05" stroke="url(#paint5_linear_2_1093)"/>
<path d="M110.074 14.0606C108.596 14.0606 107.39 15.2669 107.39 16.7451C107.39 18.2232 108.596 19.4295 110.074 19.4295C111.553 19.4295 112.759 18.2232 112.759 16.7451C112.759 15.2669 111.553 14.0606 110.074 14.0606ZM118.126 16.7451C118.126 15.6334 118.136 14.5318 118.073 13.4222C118.011 12.1333 117.717 10.9895 116.774 10.047C115.83 9.10247 114.688 8.81046 113.399 8.74803C112.288 8.6856 111.186 8.69567 110.076 8.69567C108.965 8.69567 107.863 8.6856 106.753 8.74803C105.465 8.81046 104.321 9.10448 103.378 10.047C102.434 10.9915 102.142 12.1333 102.079 13.4222C102.017 14.5338 102.027 15.6354 102.027 16.7451C102.027 17.8547 102.017 18.9583 102.079 20.0679C102.142 21.3568 102.436 22.5007 103.378 23.4432C104.323 24.3877 105.465 24.6797 106.753 24.7421C107.865 24.8045 108.967 24.7945 110.076 24.7945C111.188 24.7945 112.29 24.8045 113.399 24.7421C114.688 24.6797 115.832 24.3857 116.774 23.4432C117.719 22.4987 118.011 21.3568 118.073 20.0679C118.138 18.9583 118.126 17.8567 118.126 16.7451ZM110.074 20.8755C107.789 20.8755 105.944 19.0308 105.944 16.7451C105.944 14.4593 107.789 12.6146 110.074 12.6146C112.36 12.6146 114.205 14.4593 114.205 16.7451C114.205 19.0308 112.36 20.8755 110.074 20.8755ZM114.374 13.4101C113.84 13.4101 113.409 12.9791 113.409 12.4455C113.409 11.9118 113.84 11.4808 114.374 11.4808C114.908 11.4808 115.339 11.9118 115.339 12.4455C115.339 12.5722 115.314 12.6977 115.265 12.8148C115.217 12.9319 115.146 13.0383 115.056 13.1279C114.967 13.2175 114.86 13.2886 114.743 13.337C114.626 13.3854 114.501 13.4103 114.374 13.4101Z" fill="#555555"/>
<circle cx="157.7" cy="16.3212" r="15.6" fill="url(#paint6_linear_2_1093)" fill-opacity="0.05" stroke="url(#paint7_linear_2_1093)"/>
<path d="M150.921 13.9266C150.921 13.1939 151.049 12.5017 151.302 11.8556C151.543 11.2281 151.901 10.6522 152.357 10.1585C152.813 9.67137 153.334 9.25011 153.906 8.90692C154.492 8.55201 155.127 8.28426 155.791 8.11206C156.463 7.93568 157.154 7.84673 157.849 7.84742C158.922 7.84742 159.92 8.07439 160.846 8.52644C161.759 8.97025 162.537 9.65135 163.097 10.4985C163.676 11.3603 163.963 12.335 163.963 13.4218C163.963 14.0735 163.899 14.7111 163.768 15.3346C163.639 15.9577 163.435 16.5627 163.16 17.1362C162.897 17.6913 162.554 18.2045 162.141 18.6591C161.726 19.1064 161.223 19.4635 160.664 19.7082C160.057 19.9742 159.401 20.1081 158.738 20.1009C158.277 20.1009 157.818 19.9926 157.364 19.7751C156.91 19.5585 156.584 19.2609 156.388 18.8794C156.319 19.1441 156.225 19.5265 156.1 20.0265C155.979 20.5257 155.898 20.8478 155.863 20.9937C155.825 21.1388 155.755 21.3808 155.654 21.7161C155.585 21.9641 155.496 22.2063 155.389 22.4403L155.065 23.0751C154.925 23.3475 154.768 23.611 154.596 23.8643C154.426 24.111 154.215 24.4058 153.963 24.7449L153.823 24.7948L153.73 24.6931C153.629 23.626 153.577 22.9875 153.577 22.7765C153.577 22.1521 153.651 21.4515 153.798 20.6735C153.942 19.8966 154.17 18.9199 154.476 17.7455C154.782 16.5721 154.958 15.8818 155.005 15.6774C154.789 15.2376 154.68 14.6631 154.68 13.9568C154.68 13.3926 154.856 12.8643 155.209 12.367C155.563 11.8716 156.011 11.624 156.553 11.624C156.968 11.624 157.29 11.7615 157.521 12.0374C157.753 12.3124 157.866 12.659 157.866 13.0818C157.866 13.5301 157.717 14.179 157.418 15.0276C157.118 15.877 156.969 16.5109 156.969 16.9318C156.969 17.3585 157.122 17.7154 157.427 17.9951C157.728 18.275 158.126 18.4266 158.537 18.418C158.91 18.418 159.256 18.3332 159.577 18.1628C159.893 17.9973 160.167 17.761 160.377 17.4724C160.834 16.8455 161.159 16.1328 161.334 15.377C161.425 14.9795 161.495 14.6019 161.538 14.2468C161.584 13.8899 161.604 13.5527 161.604 13.2325C161.604 12.0581 161.231 11.1427 160.49 10.4872C159.745 9.83175 158.775 9.50589 157.581 9.50589C156.224 9.50589 155.089 9.94476 154.181 10.8253C153.271 11.7031 152.813 12.8191 152.813 14.1724C152.813 14.471 152.858 14.7592 152.944 15.0379C153.028 15.3157 153.119 15.5371 153.218 15.7009C153.316 15.862 153.408 16.0193 153.492 16.1643C153.577 16.3093 153.621 16.4129 153.621 16.4751C153.621 16.6653 153.571 16.913 153.471 17.2191C153.366 17.5252 153.243 17.6777 153.094 17.6777C153.08 17.6777 153.021 17.6674 152.92 17.6457C152.567 17.5405 152.249 17.344 151.998 17.0759C151.731 16.7982 151.52 16.4713 151.377 16.1134C151.235 15.7568 151.124 15.3884 151.045 15.0125C150.961 14.6568 150.919 14.2922 150.921 13.9266Z" fill="#555555"/>
<defs>
<linearGradient id="paint0_linear_2_1093" x1="16.1" y1="0.221191" x2="16.1" y2="32.4212" gradientUnits="userSpaceOnUse">
<stop stop-color="#FEFEFF" stop-opacity="0.29"/>
<stop offset="1" stop-color="white" stop-opacity="0.4"/>
</linearGradient>
<linearGradient id="paint1_linear_2_1093" x1="-1.54448" y1="2.38056" x2="35.5021" y2="7.0095" gradientUnits="userSpaceOnUse">
<stop stop-color="white" stop-opacity="0.08"/>
<stop offset="1" stop-color="white" stop-opacity="0.07"/>
</linearGradient>
<linearGradient id="paint2_linear_2_1093" x1="63.3" y1="0.221191" x2="63.3" y2="32.4212" gradientUnits="userSpaceOnUse">
<stop stop-color="#FEFEFF" stop-opacity="0.29"/>
<stop offset="1" stop-color="white" stop-opacity="0.4"/>
</linearGradient>
<linearGradient id="paint3_linear_2_1093" x1="45.6555" y1="2.38056" x2="82.7022" y2="7.0095" gradientUnits="userSpaceOnUse">
<stop stop-color="white" stop-opacity="0.08"/>
<stop offset="1" stop-color="white" stop-opacity="0.07"/>
</linearGradient>
<linearGradient id="paint4_linear_2_1093" x1="110.5" y1="0.221191" x2="110.5" y2="32.4212" gradientUnits="userSpaceOnUse">
<stop stop-color="#FEFEFF" stop-opacity="0.29"/>
<stop offset="1" stop-color="white" stop-opacity="0.4"/>
</linearGradient>
<linearGradient id="paint5_linear_2_1093" x1="92.8555" y1="2.38056" x2="129.902" y2="7.0095" gradientUnits="userSpaceOnUse">
<stop stop-color="white" stop-opacity="0.08"/>
<stop offset="1" stop-color="white" stop-opacity="0.07"/>
</linearGradient>
<linearGradient id="paint6_linear_2_1093" x1="157.7" y1="0.221191" x2="157.7" y2="32.4212" gradientUnits="userSpaceOnUse">
<stop stop-color="#FEFEFF" stop-opacity="0.29"/>
<stop offset="1" stop-color="white" stop-opacity="0.4"/>
</linearGradient>
<linearGradient id="paint7_linear_2_1093" x1="140.056" y1="2.38056" x2="177.102" y2="7.0095" gradientUnits="userSpaceOnUse">
<stop stop-color="white" stop-opacity="0.08"/>
<stop offset="1" stop-color="white" stop-opacity="0.07"/>
</linearGradient>
</defs>
</svg>
